<svg xmlns="http://www.w3.org/2000/svg" viewBox="0 0 160 160">
  <rect width="160" height="160" rx="28" fill="#04060f"/>
  <g transform="translate(12 10)" fill="#ff5a58">
    <path d="M3.64533 139.492H83.1453C85.6153 139.492 87.3653 137.092 86.6153 134.742L77.0353 104.672C76.5553 103.162 75.1453 102.132 73.5653 102.132H13.2553C11.6653 102.132 10.2653 103.162 9.78534 104.672L0.175295 134.742C-0.574705 137.092 1.17533 139.492 3.64533 139.492Z"/>
    <path d="M93.7653 2.78219C93.2853 1.27219 91.8754 0.242188 90.2954 0.242188H45.8053C44.2153 0.242188 42.8153 1.27219 42.3353 2.78219L35.5253 24.1022C34.7753 26.4522 36.5253 28.8522 38.9953 28.8522H67.5753C69.1653 28.8522 70.5654 29.8822 71.0454 31.3922L104.675 136.952C105.155 138.462 106.565 139.492 108.145 139.492H132.435C134.905 139.492 136.655 137.092 135.905 134.742L93.7653 2.78219Z"/>
    <path d="M21.3253 84.1723H65.2954C67.7654 84.1723 69.5153 81.7723 68.7653 79.4223L59.1853 49.3523C58.7053 47.8423 57.2953 46.8123 55.7153 46.8123H30.9353C29.3453 46.8123 27.9453 47.8423 27.4653 49.3523L17.8554 79.4223C17.1054 81.7723 18.8553 84.1723 21.3253 84.1723Z"/>
  </g>
</svg>
